<svg width="25" height="24" viewBox="0 0 25 24" fill="none" xmlns="http://www.w3.org/2000/svg">
<path d="M24.6001 4.44647C24.4506 4.24078 24.212 4.11906 23.9584 4.11906H6.08895C6.05433 4.11906 6.01977 4.12117 5.98648 4.12567L5.25106 1.99758C5.17484 1.77748 5.00699 1.60204 4.79129 1.5168L1.08496 0.0552127C0.676485 -0.105326 0.215549 0.0960841 0.055127 0.505633C-0.105018 0.915403 0.0955649 1.37839 0.503821 1.53943L3.87002 2.86689L7.99031 14.7891C7.80845 14.8527 7.65434 14.9927 7.58416 15.1887L6.39285 18.5106C6.31984 18.7143 6.34992 18.9407 6.47417 19.1176C6.59825 19.2946 6.80005 19.4 7.01554 19.4H7.62731C7.24819 19.8235 7.01554 20.3813 7.01554 20.9946C7.01554 22.3135 8.08454 23.3864 9.39816 23.3864C10.7118 23.3864 11.7808 22.3135 11.7808 20.9946C11.7808 20.3813 11.5481 19.8235 11.169 19.4H16.3637C15.9844 19.8235 15.7517 20.3813 15.7517 20.9946C15.7517 22.3135 16.8204 23.3864 18.1343 23.3864C19.4482 23.3864 20.517 22.3135 20.517 20.9946C20.517 20.3813 20.2843 19.8235 19.9052 19.4H20.6494C21.0149 19.4 21.3112 19.1026 21.3112 18.7356C21.3112 18.3687 21.0148 18.0713 20.6494 18.0713H7.95724L8.69504 16.014C8.79032 16.0543 8.89324 16.0781 9.00098 16.0781H20.6492C20.9945 16.0781 21.3001 15.8542 21.4053 15.5243L24.7145 5.1598C24.7921 4.91713 24.7495 4.65216 24.6001 4.44647ZM9.39816 22.0576C8.81413 22.0576 8.33924 21.5808 8.33924 20.9946C8.33924 20.4083 8.81413 19.9315 9.39816 19.9315C9.98218 19.9315 10.4571 20.4083 10.4571 20.9946C10.4571 21.5808 9.98218 22.0576 9.39816 22.0576ZM18.1343 22.0576C17.5503 22.0576 17.0753 21.5808 17.0753 20.9946C17.0753 20.4083 17.5503 19.9315 18.1343 19.9315C18.7183 19.9315 19.1932 20.4083 19.1932 20.9946C19.1932 21.5808 18.7183 22.0576 18.1343 22.0576ZM22.2973 7.50744H18.2446V5.7136H22.87L22.2973 7.50744ZM21.1303 11.1615H18.2446V9.10192H21.788L21.1303 11.1615ZM12.9939 11.1615V9.10192H16.6562V11.1615H12.9939ZM16.6562 12.7562V14.4836H12.9939V12.7562H16.6562ZM7.70619 9.10192H11.4056V11.1615H8.41807L7.70619 9.10192ZM12.9939 7.50744V5.7136H16.6562V7.50744H12.9939ZM11.4056 5.7136V7.50744H7.15496L6.53505 5.7136H11.4056ZM8.96924 12.7562H11.4056V14.4836H9.56617L8.96924 12.7562ZM18.2446 14.4836V12.7562H20.6215L20.0701 14.4836H18.2446Z" fill="white"/>
</svg>
