<svg width="41" height="39" viewBox="0 0 41 39" fill="none" xmlns="http://www.w3.org/2000/svg">
<ellipse cx="20.6345" cy="19.5" rx="20.167" ry="19.5" fill="black"/>
<path d="M31.6001 11.4465C31.4506 11.2408 31.212 11.1191 30.9584 11.1191H13.089C13.0543 11.1191 13.0198 11.1212 12.9865 11.1257L12.2511 8.99758C12.1748 8.77748 12.007 8.60204 11.7913 8.5168L8.08496 7.05521C7.67649 6.89467 7.21555 7.09608 7.05513 7.50563C6.89498 7.9154 7.09556 8.37839 7.50382 8.53943L10.87 9.86689L14.9903 21.7891C14.8085 21.8527 14.6543 21.9927 14.5842 22.1887L13.3928 25.5106C13.3198 25.7143 13.3499 25.9407 13.4742 26.1176C13.5983 26.2946 13.8001 26.4 14.0155 26.4H14.6273C14.2482 26.8235 14.0155 27.3813 14.0155 27.9946C14.0155 29.3135 15.0845 30.3864 16.3982 30.3864C17.7118 30.3864 18.7808 29.3135 18.7808 27.9946C18.7808 27.3813 18.5481 26.8235 18.169 26.4H23.3637C22.9844 26.8235 22.7517 27.3813 22.7517 27.9946C22.7517 29.3135 23.8204 30.3864 25.1343 30.3864C26.4482 30.3864 27.517 29.3135 27.517 27.9946C27.517 27.3813 27.2843 26.8235 26.9052 26.4H27.6494C28.0149 26.4 28.3112 26.1026 28.3112 25.7356C28.3112 25.3687 28.0148 25.0713 27.6494 25.0713H14.9572L15.695 23.014C15.7903 23.0543 15.8932 23.0781 16.001 23.0781H27.6492C27.9945 23.0781 28.3001 22.8542 28.4053 22.5243L31.7145 12.1598C31.7921 11.9171 31.7495 11.6522 31.6001 11.4465ZM16.3982 29.0576C15.8141 29.0576 15.3392 28.5808 15.3392 27.9946C15.3392 27.4083 15.8141 26.9315 16.3982 26.9315C16.9822 26.9315 17.4571 27.4083 17.4571 27.9946C17.4571 28.5808 16.9822 29.0576 16.3982 29.0576ZM25.1343 29.0576C24.5503 29.0576 24.0753 28.5808 24.0753 27.9946C24.0753 27.4083 24.5503 26.9315 25.1343 26.9315C25.7183 26.9315 26.1932 27.4083 26.1932 27.9946C26.1932 28.5808 25.7183 29.0576 25.1343 29.0576ZM29.2973 14.5074H25.2446V12.7136H29.87L29.2973 14.5074ZM28.1303 18.1615H25.2446V16.1019H28.788L28.1303 18.1615ZM19.9939 18.1615V16.1019H23.6562V18.1615H19.9939ZM23.6562 19.7562V21.4836H19.9939V19.7562H23.6562ZM14.7062 16.1019H18.4056V18.1615H15.4181L14.7062 16.1019ZM19.9939 14.5074V12.7136H23.6562V14.5074H19.9939ZM18.4056 12.7136V14.5074H14.155L13.535 12.7136H18.4056ZM15.9692 19.7562H18.4056V21.4836H16.5662L15.9692 19.7562ZM25.2446 21.4836V19.7562H27.6215L27.0701 21.4836H25.2446Z" fill="white"/>
</svg>
