<svg width="87" height="90" viewBox="0 0 87 90" fill="none" xmlns="http://www.w3.org/2000/svg">
<g filter="url(#filter0_d)">
<path d="M22.5379 19.9941C23.4244 17.0304 26.151 15 29.2444 15H32.6527C35.2125 15 37.5681 16.3972 38.7955 18.6436L38.983 18.9866C39.1857 19.3577 39.4346 19.7016 39.7237 20.0103L39.7738 20.0637C41.7875 22.2135 45.2217 22.1393 47.1406 19.9044C47.3457 19.6657 47.5274 19.4079 47.6835 19.1346L48.0294 18.5288C49.2755 16.3468 51.5954 15 54.1081 15H57.6971C60.9652 15 63.7985 17.2614 64.5229 20.4482L64.8344 21.8182L66.8219 30.9119C67.1005 32.1868 66.3376 33.458 65.0816 33.8119C64.0186 34.1113 63.2844 35.081 63.2844 36.1853V58C63.2844 61.866 60.1504 65 56.2844 65H31.0317C27.1657 65 24.0317 61.866 24.0317 58V36.2473C24.0317 35.0966 23.2918 34.0763 22.198 33.7187C20.9375 33.3065 20.173 32.029 20.4057 30.7233L21.9923 21.8182L22.5379 19.9941Z" fill="black"/>
</g>
<defs>
<filter id="filter0_d" x="0.364105" y="0" width="86.5151" height="90" filterUnits="userSpaceOnUse" color-interpolation-filters="sRGB">
<feFlood flood-opacity="0" result="BackgroundImageFix"/>
<feColorMatrix in="SourceAlpha" type="matrix" values="0 0 0 0 0 0 0 0 0 0 0 0 0 0 0 0 0 0 127 0" result="hardAlpha"/>
<feOffset dy="5"/>
<feGaussianBlur stdDeviation="10"/>
<feComposite in2="hardAlpha" operator="out"/>
<feColorMatrix type="matrix" values="0 0 0 0 0 0 0 0 0 0 0 0 0 0 0 0 0 0 0.32 0"/>
<feBlend mode="normal" in2="BackgroundImageFix" result="effect1_dropShadow"/>
<feBlend mode="normal" in="SourceGraphic" in2="effect1_dropShadow" result="shape"/>
</filter>
</defs>
</svg>
